<svg width="57" height="43" viewBox="0 0 57 43" fill="none" xmlns="http://www.w3.org/2000/svg">
<g filter="url(#filter0_d_143_2)">
<path d="M16.9974 10.06C19.1974 10.06 21.1274 10.49 22.7874 11.35C24.4674 12.21 25.7574 13.44 26.6574 15.04C27.5774 16.62 28.0374 18.46 28.0374 20.56C28.0374 22.66 27.5774 24.5 26.6574 26.08C25.7574 27.64 24.4674 28.85 22.7874 29.71C21.1274 30.57 19.1974 31 16.9974 31H9.67742V10.06H16.9974ZM16.8474 27.43C19.0474 27.43 20.7474 26.83 21.9474 25.63C23.1474 24.43 23.7474 22.74 23.7474 20.56C23.7474 18.38 23.1474 16.68 21.9474 15.46C20.7474 14.22 19.0474 13.6 16.8474 13.6H13.8774V27.43H16.8474ZM38.4113 31.21C36.9513 31.21 35.6313 30.96 34.4513 30.46C33.2913 29.96 32.3713 29.24 31.6913 28.3C31.0113 27.36 30.6613 26.25 30.6413 24.97H35.1413C35.2013 25.83 35.5013 26.51 36.0413 27.01C36.6013 27.51 37.3613 27.76 38.3213 27.76C39.3013 27.76 40.0713 27.53 40.6313 27.07C41.1913 26.59 41.4713 25.97 41.4713 25.21C41.4713 24.59 41.2813 24.08 40.9013 23.68C40.5213 23.28 40.0413 22.97 39.4613 22.75C38.9013 22.51 38.1213 22.25 37.1213 21.97C35.7613 21.57 34.6513 21.18 33.7913 20.8C32.9513 20.4 32.2213 19.81 31.6013 19.03C31.0013 18.23 30.7013 17.17 30.7013 15.85C30.7013 14.61 31.0113 13.53 31.6313 12.61C32.2513 11.69 33.1213 10.99 34.2413 10.51C35.3613 10.01 36.6413 9.76 38.0813 9.76C40.2413 9.76 41.9913 10.29 43.3313 11.35C44.6913 12.39 45.4413 13.85 45.5813 15.73H40.9613C40.9213 15.01 40.6113 14.42 40.0313 13.96C39.4713 13.48 38.7213 13.24 37.7813 13.24C36.9613 13.24 36.3013 13.45 35.8013 13.87C35.3213 14.29 35.0813 14.9 35.0813 15.7C35.0813 16.26 35.2613 16.73 35.6213 17.11C36.0013 17.47 36.4613 17.77 37.0013 18.01C37.5613 18.23 38.3413 18.49 39.3413 18.79C40.7013 19.19 41.8113 19.59 42.6713 19.99C43.5313 20.39 44.2713 20.99 44.8913 21.79C45.5113 22.59 45.8213 23.64 45.8213 24.94C45.8213 26.06 45.5313 27.1 44.9513 28.06C44.3713 29.02 43.5213 29.79 42.4013 30.37C41.2813 30.93 39.9513 31.21 38.4113 31.21Z" fill="white"/>
</g>
<defs>
<filter id="filter0_d_143_2" x="0.677422" y="0.76001" width="56.1439" height="41.45" filterUnits="userSpaceOnUse" color-interpolation-filters="sRGB">
<feFlood flood-opacity="0" result="BackgroundImageFix"/>
<feColorMatrix in="SourceAlpha" type="matrix" values="0 0 0 0 0 0 0 0 0 0 0 0 0 0 0 0 0 0 127 0" result="hardAlpha"/>
<feOffset dx="1" dy="1"/>
<feGaussianBlur stdDeviation="5"/>
<feComposite in2="hardAlpha" operator="out"/>
<feColorMatrix type="matrix" values="0 0 0 0 1 0 0 0 0 1 0 0 0 0 1 0 0 0 1 0"/>
<feBlend mode="normal" in2="BackgroundImageFix" result="effect1_dropShadow_143_2"/>
<feBlend mode="normal" in="SourceGraphic" in2="effect1_dropShadow_143_2" result="shape"/>
</filter>
</defs>
</svg>
